<svg width="70" height="68" viewBox="0 0 70 68" fill="none" xmlns="http://www.w3.org/2000/svg">
<rect width="70" height="68" fill="#0D42FF"/>
<path d="M37.135 48H29.596L24.892 28.659H26.026L21.322 48H13.741L7.42 20.28H14.623L17.962 39.726H17.878L23.086 20.28H27.811L33.04 39.726H32.956L36.295 20.28H43.498L37.135 48ZM44.4026 20.28H53.9156C55.4976 20.28 56.9606 20.497 58.3046 20.931C59.6626 21.365 60.7546 22.079 61.5806 23.073C62.4206 24.053 62.8406 25.383 62.8406 27.063C62.8406 28.169 62.6306 29.156 62.2106 30.024C61.8046 30.892 61.2586 31.606 60.5726 32.166C59.9006 32.712 59.1656 33.076 58.3676 33.258C59.0676 33.342 59.7466 33.545 60.4046 33.867C61.0766 34.175 61.6786 34.609 62.2106 35.169C62.7566 35.715 63.1836 36.401 63.4916 37.227C63.8136 38.039 63.9746 39.005 63.9746 40.125C63.9746 41.679 63.6246 43.051 62.9246 44.241C62.2386 45.417 61.2306 46.341 59.9006 47.013C58.5846 47.671 56.9676 48 55.0496 48H44.4026V20.28ZM50.6816 42.981H53.5376C54.4336 42.981 55.1616 42.848 55.7216 42.582C56.2956 42.302 56.7156 41.91 56.9816 41.406C57.2476 40.888 57.3806 40.272 57.3806 39.558C57.3806 38.438 57.0306 37.619 56.3306 37.101C55.6446 36.569 54.6786 36.303 53.4326 36.303H50.6816V42.981ZM50.6816 31.389H53.2226C53.9646 31.389 54.5806 31.256 55.0706 30.99C55.5746 30.724 55.9526 30.353 56.2046 29.877C56.4706 29.387 56.6036 28.827 56.6036 28.197C56.6036 27.063 56.2816 26.3 55.6376 25.908C54.9936 25.502 54.1116 25.299 52.9916 25.299H50.6816V31.389Z" fill="white"/>
</svg>
